<svg width="26" height="26" viewBox="0 0 26 26" fill="none" xmlns="http://www.w3.org/2000/svg">
<path d="M15.4074 3.40271C15.4407 3.36067 15.4819 3.32563 15.5287 3.29959C15.5756 3.27356 15.6271 3.25704 15.6803 3.251C15.7336 3.24496 15.7875 3.24951 15.8389 3.26439C15.8904 3.27927 15.9384 3.30419 15.9802 3.33771L16.8577 4.04133L13.6492 8.12496H15.7162L18.1277 5.05696L20.1622 6.68683C20.2048 6.72096 20.2401 6.76334 20.266 6.81143C20.2919 6.85952 20.3078 6.91234 20.3128 6.96672C20.3178 7.0211 20.3118 7.07593 20.2951 7.12794C20.2785 7.17994 20.2515 7.22805 20.2158 7.26939L19.4781 8.12496H21.6019C21.8817 7.70226 21.9933 7.19025 21.9148 6.68948C21.8363 6.18871 21.5734 5.73538 21.1778 5.41852L16.9959 2.06939C16.787 1.90213 16.5471 1.7778 16.29 1.70354C16.0328 1.62928 15.7636 1.60656 15.4977 1.63669C15.2318 1.66682 14.9744 1.74919 14.7404 1.87908C14.5065 2.00898 14.3004 2.18382 14.1342 2.39358L9.59481 8.12496H11.6675L15.4074 3.40271ZM17.0625 15.4375C16.847 15.4375 16.6403 15.5231 16.488 15.6754C16.3356 15.8278 16.25 16.0345 16.25 16.25C16.25 16.4654 16.3356 16.6721 16.488 16.8245C16.6403 16.9769 16.847 17.0625 17.0625 17.0625H19.5C19.7155 17.0625 19.9222 16.9769 20.0745 16.8245C20.2269 16.6721 20.3125 16.4654 20.3125 16.25C20.3125 16.0345 20.2269 15.8278 20.0745 15.6754C19.9222 15.5231 19.7155 15.4375 19.5 15.4375H17.0625ZM4.875 5.68746C4.22853 5.68746 3.60855 5.94426 3.15143 6.40138C2.69431 6.8585 2.4375 7.47849 2.4375 8.12496V19.9062C2.4375 20.8759 2.82271 21.8059 3.50839 22.4916C4.19407 23.1772 5.12405 23.5625 6.09375 23.5625H19.9062C20.8759 23.5625 21.8059 23.1772 22.4916 22.4916C23.1773 21.8059 23.5625 20.8759 23.5625 19.9062V12.5937C23.5625 11.624 23.1773 10.694 22.4916 10.0083C21.8059 9.32267 20.8759 8.93746 19.9062 8.93746H4.875C4.65951 8.93746 4.45285 8.85185 4.30048 8.69948C4.1481 8.54711 4.0625 8.34045 4.0625 8.12496C4.0625 7.90947 4.1481 7.70281 4.30048 7.55043C4.45285 7.39806 4.65951 7.31246 4.875 7.31246H8.59625L9.893 5.68746H4.875ZM4.0625 19.9062V10.4243C4.31681 10.5137 4.59063 10.5625 4.875 10.5625H19.9062C20.445 10.5625 20.9616 10.7765 21.3426 11.1574C21.7235 11.5383 21.9375 12.055 21.9375 12.5937V19.9062C21.9375 20.4449 21.7235 20.9616 21.3426 21.3425C20.9616 21.7235 20.445 21.9375 19.9062 21.9375H6.09375C5.55503 21.9375 5.03837 21.7235 4.65744 21.3425C4.27651 20.9616 4.0625 20.4449 4.0625 19.9062Z" fill="white"/>
</svg>
